Coordinates
version=1
nRows=24
nColumns=38
inDegrees=no

Units are S.I. units (second, meters, Newtons, ...)
If the header above contains a line with 'inDegrees', this indicates whether rotational values are in degrees (yes) or radians (no).

endheader
time	pelvis_tilt	pelvis_list	pelvis_rotation	pelvis_tx	pelvis_ty	pelvis_tz	hip_flexion_r	hip_adduction_r	hip_rotation_r	knee_angle_r	ankle_angle_r	subtalar_angle_r	mtp_angle_r	hip_flexion_l	hip_adduction_l	hip_rotation_l	knee_angle_l	ankle_angle_l	subtalar_angle_l	mtp_angle_l	lumbar_extension	lumbar_bending	lumbar_rotation	arm_flex_r	arm_add_r	arm_rot_r	elbow_flex_r	pro_sup_r	wrist_flex_r	wrist_dev_r	arm_flex_l	arm_add_l	arm_rot_l	elbow_flex_l	pro_sup_l	wrist_flex_l	wrist_dev_l
0	0.47275	1.43101	1.13713	0.706082	-0.430161	1.02828	-0.134492	0.0448168	-0.203445	0.217867	-0.056328	0	0	0.421243	-0.0434033	-0.29389	0.00160104	-0.132502	0	0	-0.293102	0.0678361	0.139394	-0.179287	-0.477543	0.227251	0.770861	0.962941	0	0	-0.0557386	-0.446317	0.532622	0.535191	1.14365	0	0
0.01	0.466979	1.42539	1.1391	0.705091	-0.416814	1.02612	-0.132497	0.0438014	-0.194728	0.237573	-0.0575708	0	0	0.425809	-0.040826	-0.271482	0	-0.136076	0	0	-0.285928	0.0646398	0.141893	-0.179467	-0.474404	0.226273	0.764285	0.965111	0	0	-0.0586971	-0.447413	0.532639	0.526882	1.13622	0	0
0.02	0.47213	1.42583	1.13239	0.704066	-0.40268	1.02454	-0.13903	0.0419982	-0.188542	0.253382	-0.0610398	0	0	0.42789	-0.0388546	-0.259775	0.0173027	-0.139167	0	0	-0.284185	0.0605308	0.142636	-0.179853	-0.470114	0.22538	0.757017	0.966959	0	0	-0.0616678	-0.449805	0.53156	0.519718	1.13107	0	0
0.03	0.480542	1.42931	1.1227	0.703046	-0.388127	1.02334	-0.147357	0.0388215	-0.182641	0.272693	-0.0677046	0	0	0.42813	-0.0372836	-0.253005	0.0469765	-0.143875	0	0	-0.285252	0.0554306	0.143349	-0.180052	-0.464978	0.224335	0.748565	0.970053	0	0	-0.0643464	-0.45331	0.531589	0.513889	1.12592	0	0
0.04	0.487369	1.43378	1.11498	0.701984	-0.373167	1.02227	-0.155047	0.0346307	-0.175796	0.295303	-0.076306	0	0	0.426914	-0.0353195	-0.246764	0.0817739	-0.149261	0	0	-0.286649	0.0495946	0.143715	-0.180355	-0.459082	0.223498	0.738579	0.973509	0	0	-0.0676299	-0.45785	0.531296	0.509801	1.12161	0	0
0.05	0.490679	1.43842	1.11013	0.70095	-0.357774	1.02124	-0.16061	0.0294662	-0.167243	0.322455	-0.0877565	0	0	0.423699	-0.032226	-0.239048	0.114049	-0.158957	0	0	-0.286687	0.0431255	0.144006	-0.180681	-0.452482	0.223228	0.726562	0.977591	0	0	-0.0725992	-0.462582	0.528903	0.506382	1.1177	0	0
0.06	0.483708	1.44233	1.11469	0.699819	-0.342127	1.02022	-0.162089	0.0225947	-0.155834	0.355149	-0.104401	0	0	0.420171	-0.0268457	-0.230957	0.139	-0.18	0	0	-0.284016	0.035696	0.142924	-0.179824	-0.445328	0.224624	0.712214	0.982988	0	0	-0.0798013	-0.466942	0.52483	0.502438	1.11368	0	0
0.07	0.464992	1.44485	1.13102	0.698548	-0.32654	1.01935	-0.15762	0.0142979	-0.141855	0.395009	-0.123576	0	0	0.419	-0.020091	-0.223824	0.159634	-0.205326	0	0	-0.27902	0.0276612	0.140258	-0.177915	-0.437965	0.227313	0.697049	0.987214	0	0	-0.08759	-0.470493	0.519325	0.497375	1.10932	0	0
0.08	0.43499	1.44552	1.15899	0.697187	-0.311214	1.01868	-0.146314	0.00482883	-0.125867	0.44211	-0.147957	0	0	0.421117	-0.0140883	-0.217523	0.182884	-0.222455	0	0	-0.271938	0.019129	0.136641	-0.17501	-0.430428	0.231295	0.681437	0.989977	0	0	-0.0950685	-0.473469	0.512671	0.491851	1.10403	0	0
0.09	0.397326	1.44463	1.1949	0.695685	-0.296165	1.01816	-0.129047	-0.00572885	-0.109477	0.494254	-0.180369	0	0	0.425054	-0.00943035	-0.210545	0.212325	-0.221667	0	0	-0.263294	0.0109149	0.1328	-0.172336	-0.423673	0.235955	0.666908	0.991537	0	0	-0.10151	-0.475679	0.506689	0.485888	1.09798	0	0
0.1	0.355802	1.44338	1.23492	0.693971	-0.28145	1.01781	-0.108035	-0.0171868	-0.0936143	0.549071	-0.220038	0	0	0.429006	-0.00517003	-0.205029	0.246899	-0.206561	0	0	-0.255221	0.0033439	0.129207	-0.170405	-0.418546	0.240246	0.655104	0.99175	0	0	-0.105993	-0.477287	0.502631	0.480235	1.09154	0	0
0.11	0.309399	1.44148	1.28058	0.692102	-0.267209	1.01766	-0.0834495	-0.0289415	-0.0782948	0.605159	-0.268579	0	0	0.433701	-0.000471655	-0.2029	0.283552	-0.184288	0	0	-0.247885	-0.00378496	0.125353	-0.167959	-0.414578	0.245273	0.644379	0.991174	0	0	-0.10782	-0.478943	0.502041	0.475104	1.08448	0	0
0.12	0.267306	1.44034	1.32162	0.690436	-0.253435	1.01786	-0.0573598	-0.0393279	-0.0612912	0.662523	-0.316686	0	0	0.436761	0.00427729	-0.201421	0.318961	-0.160674	0	0	-0.243932	-0.0101999	0.122984	-0.165529	-0.411802	0.249312	0.636456	0.990195	0	0	-0.106378	-0.481392	0.504622	0.471898	1.07703	0	0
0.13	0.230536	1.43887	1.35591	0.689123	-0.240003	1.01818	-0.0279177	-0.047435	-0.0415768	0.722894	-0.365376	0	0	0.438827	0.00807243	-0.20051	0.351036	-0.137136	0	0	-0.241583	-0.0156967	0.122722	-0.16338	-0.410184	0.252305	0.63114	0.988984	0	0	-0.102932	-0.484668	0.509589	0.470705	1.06905	0	0
0.14	0.199382	1.43762	1.38435	0.687769	-0.227015	1.01854	0.0029047	-0.0540876	-0.0235386	0.781388	-0.416633	0	0	0.439156	0.0114412	-0.20038	0.378343	-0.117089	0	0	-0.24112	-0.0196905	0.123784	-0.163063	-0.4108	0.252248	0.630718	0.987368	0	0	-0.0974416	-0.488651	0.51778	0.472604	1.06215	0	0
0.15	0.177513	1.43683	1.40313	0.686325	-0.214285	1.01898	0.0340043	-0.0591586	-0.00820709	0.835829	-0.471307	0	0	0.436459	0.0139203	-0.200937	0.399696	-0.100852	0	0	-0.241888	-0.0216064	0.126079	-0.165409	-0.413662	0.248825	0.635623	0.98743	0	0	-0.0906246	-0.492774	0.528481	0.476903	1.05662	0	0
0.16	0.16477	1.43681	1.41116	0.685044	-0.201608	1.0196	0.0645384	-0.0626038	0.00562325	0.885857	-0.52213	0	0	0.429776	0.0149346	-0.203301	0.414749	-0.0863468	0	0	-0.243163	-0.0221258	0.13034	-0.169534	-0.417411	0.242326	0.643194	0.989957	0	0	-0.0833093	-0.496871	0.540161	0.482896	1.05245	0	0
0.17	0.160532	1.43685	1.41029	0.683881	-0.189013	1.02044	0.0948409	-0.0646028	0.0167424	0.932508	-0.550486	0	0	0.420352	0.0150083	-0.205653	0.424316	-0.0740039	0	0	-0.244195	-0.0213884	0.134462	-0.173399	-0.421351	0.235088	0.650965	0.994081	0	0	-0.0765109	-0.500875	0.550154	0.490162	1.05058	0	0
0.18	0.165291	1.43711	1.40074	0.682673	-0.176476	1.02154	0.12412	-0.0654855	0.0254557	0.975722	-0.554141	0	0	0.408608	0.0146454	-0.207823	0.429945	-0.0632648	0	0	-0.245227	-0.0190979	0.137513	-0.176347	-0.425778	0.228245	0.658145	0.998359	0	0	-0.0704404	-0.504173	0.557374	0.497957	1.05077	0	0
0.19	0.177316	1.43655	1.38507	0.681352	-0.164011	1.02278	0.153322	-0.0652594	0.0324177	1.01597	-0.534282	0	0	0.396182	0.0139095	-0.211209	0.432593	-0.0518923	0	0	-0.24496	-0.0152905	0.139426	-0.17927	-0.43003	0.22032	0.664597	1.00446	0	0	-0.064595	-0.506969	0.562944	0.506032	1.0529	0	0
0.2	0.19426	1.43518	1.36507	0.679892	-0.151481	1.02422	0.182196	-0.0642772	0.0380528	1.05262	-0.500545	0	0	0.382579	0.0125325	-0.216497	0.431769	-0.0435975	0	0	-0.242806	-0.0105272	0.14	-0.180738	-0.434261	0.215208	0.668142	1.01122	0	0	-0.0600433	-0.508871	0.565069	0.514096	1.05877	0	0
0.21	0.214433	1.43293	1.34389	0.678233	-0.13903	1.02583	0.210212	-0.063431	0.0391048	1.08373	-0.461565	0	0	0.368429	0.0106782	-0.222347	0.427541	-0.0382955	0	0	-0.239325	-0.00470207	0.138321	-0.180843	-0.438508	0.212641	0.669587	1.01777	0	0	-0.0560632	-0.51007	0.563657	0.521954	1.06811	0	0
0.22	0.238115	1.43017	1.32239	0.676392	-0.1267	1.02766	0.236694	-0.0628956	0.0346764	1.10849	-0.423048	0	0	0.354038	0.00851069	-0.226606	0.420566	-0.0360028	0	0	-0.235548	0.00236429	0.133702	-0.179308	-0.442336	0.212125	0.668423	1.02316	0	0	-0.0520637	-0.51073	0.558447	0.529807	1.07944	0	0
0.23	0.266112	1.42794	1.30026	0.67431	-0.11452	1.02976	0.260854	-0.062875	0.0254465	1.12663	-0.388505	0	0	0.33876	0.00656876	-0.228384	0.41158	-0.0364443	0	0	-0.233036	0.0106089	0.125933	-0.17645	-0.446071	0.21343	0.665794	1.02751	0	0	-0.0474147	-0.511389	0.550467	0.538572	1.09093	0	0
